HIERARCHY
ROOT Hips
{
	OFFSET 0.000000 0.000000 0.000000
	CHANNELS 6 Xposition Yposition Zposition Zrotation Yrotation Xrotation 
	JOINT LHipJoint
	{
		OFFSET 0.000000 0.000000 0.000000
		CHANNELS 3 Zrotation Yrotation Xrotation
		JOINT LeftUpLeg
		{
			OFFSET 1.363060 -1.794630 0.839290
			CHANNELS 3 Zrotation Yrotation Xrotation
			JOINT LeftLeg
			{
				OFFSET 2.448110 -6.726130 0.000000
				CHANNELS 3 Zrotation Yrotation Xrotation
				JOINT LeftFoot
				{
					OFFSET 2.562200 -7.039590 0.000000
					CHANNELS 3 Zrotation Yrotation Xrotation
					JOINT LeftToeBase
					{
						OFFSET 0.157640 -0.433110 2.322550
						CHANNELS 3 Zrotation Yrotation Xrotation
						End Site
						{
							OFFSET 0.000000 0.000000 0.000000
						}
					}
				}
			}
		}
	}
	JOINT RHipJoint
	{
		OFFSET 0.000000 0.000000 0.000000
		CHANNELS 3 Zrotation Yrotation Xrotation
		JOINT RightUpLeg
		{
			OFFSET -1.305520 -1.794630 0.839290
			CHANNELS 3 Zrotation Yrotation Xrotation
			JOINT RightLeg
			{
				OFFSET -2.542530 -6.985550 0.000000
				CHANNELS 3 Zrotation Yrotation Xrotation
				JOINT RightFoot
				{
					OFFSET -2.568260 -7.056230 0.000000
					CHANNELS 3 Zrotation Yrotation Xrotation
					JOINT RightToeBase
					{
						OFFSET -0.164730 -0.452590 2.363150
						CHANNELS 3 Zrotation Yrotation Xrotation
						End Site
						{
							OFFSET 0.000000 0.000000 0.000000
						}
					}
				}
			}
		}
	}
	JOINT LowerBack
	{
		OFFSET 0.000000 0.000000 0.000000
		CHANNELS 3 Zrotation Yrotation Xrotation
		JOINT Spine
		{
			OFFSET 0.028270 2.035590 -0.193380
			CHANNELS 3 Zrotation Yrotation Xrotation
			JOINT Spine1
			{
				OFFSET 0.056720 2.048850 -0.042750
				CHANNELS 3 Zrotation Yrotation Xrotation
				JOINT Neck
				{
					OFFSET 0.000000 0.000000 0.000000
					CHANNELS 3 Zrotation Yrotation Xrotation
					JOINT Neck1
					{
						OFFSET -0.054170 1.746240 0.172020
						CHANNELS 3 Zrotation Yrotation Xrotation
						JOINT Head
						{
							OFFSET 0.104070 1.761360 -0.123970
							CHANNELS 3 Zrotation Yrotation Xrotation
							End Site
							{
								OFFSET 0.000000 0.000000 0.000000
							}
						}
					}
				}
				JOINT LeftShoulder
				{
					OFFSET 0.000000 0.000000 0.000000
					CHANNELS 3 Zrotation Yrotation Xrotation
					JOINT LeftArm
					{
						OFFSET 3.362410 1.200890 -0.311210
						CHANNELS 3 Zrotation Yrotation Xrotation
						JOINT LeftForeArm
						{
							OFFSET 4.983000 -0.000000 -0.000000
							CHANNELS 3 Zrotation Yrotation Xrotation
							JOINT LeftHand
							{
								OFFSET 3.483560 -0.000000 -0.000000
								CHANNELS 3 Zrotation Yrotation Xrotation
								JOINT LeftFingerBase
								{
									OFFSET 0.000000 0.000000 0.000000
									CHANNELS 3 Zrotation Yrotation Xrotation
									JOINT LeftHandIndex1
									{
										OFFSET 0.715260 -0.000000 -0.000000
										CHANNELS 3 Zrotation Yrotation Xrotation
										End Site
										{
											OFFSET 0.000000 0.000000 0.000000
										}
									}
								}
								JOINT LThumb
								{
									OFFSET 0.000000 0.000000 0.000000
									CHANNELS 3 Zrotation Yrotation Xrotation
									End Site
									{
										OFFSET 0.000000 0.000000 0.000000
									}
								}
							}
						}
					}
				}
				JOINT RightShoulder
				{
					OFFSET 0.000000 0.000000 0.000000
					CHANNELS 3 Zrotation Yrotation Xrotation
					JOINT RightArm
					{
						OFFSET -3.136600 1.374050 -0.404650
						CHANNELS 3 Zrotation Yrotation Xrotation
						JOINT RightForeArm
						{
							OFFSET -5.241900 -0.000000 -0.000000
							CHANNELS 3 Zrotation Yrotation Xrotation
							JOINT RightHand
							{
								OFFSET -3.444170 -0.000000 -0.000000
								CHANNELS 3 Zrotation Yrotation Xrotation
								JOINT RightFingerBase
								{
									OFFSET 0.000000 0.000000 0.000000
									CHANNELS 3 Zrotation Yrotation Xrotation
									JOINT RightHandIndex1
									{
										OFFSET -0.622530 -0.000000 -0.000000
										CHANNELS 3 Zrotation Yrotation Xrotation
										End Site
										{
											OFFSET 0.000000 0.000000 0.000000
										}
									}
								}
								JOINT RThumb
								{
									OFFSET 0.000000 0.000000 0.000000
									CHANNELS 3 Zrotation Yrotation Xrotation
									End Site
									{
										OFFSET 0.000000 0.000000 0.000000
									}
								}
							}
						}
					}
				}
			}
		}
	}
}
MOTION
Frames: 7
Frame Time: 0.008333
6.917251 16.386854 -7.316339 -176.040594 28.361983 -173.460071 -12.751789 5.147538 0.012899 -8.779621 11.082120 4.989188 0.290206 2.864901 40.899940 1.425318 5.983232 15.510565 1.723200 -0.000000 -42.389700 8.341776 -0.765001 1.948689 6.041797 -2.328355 -36.087554 2.205314 -2.099966 31.197634 0.873475 7.235125 1.845389 0.929700 -0.000000 -62.341200 6.712891 -4.268800 -4.267434 0.932582 -4.928503 -3.006771 -6.176305 -4.825282 2.876897 8.182141 -21.071270 -10.797878 -2.671902 -0.173108 -0.774546 0.000000 0.000000 0.000000 1.097079 14.790169 0.127583 -40.875104 -2.323504 5.384454 -0.546467 -80.207633 0.006642 -1.617942 1.986141 -0.023223 -0.044848 0.214162 -0.000000 0.000000 0.000000 0.000000 0.000000 0.000000 0.000000 14.109332 -18.237616 -0.074409 73.977173 -13.581506 -8.844341 3.803399 30.274753 0.012732 0.530099 5.020770 0.018797 0.123285 -0.060193 0.000000 0.000000 0.000000 0.000000 0.000000 0.000000 0.000000 
7.017067 16.382371 -7.476808 -176.044765 27.550842 -173.713426 -12.950465 5.086675 -0.141225 -8.203467 12.003332 3.162807 0.485281 2.973127 44.369044 1.692498 7.943510 16.178847 2.455200 -0.000001 -37.211200 8.377425 -0.818677 1.743802 6.048955 -3.243108 -35.696150 2.149215 -2.182337 32.529306 0.887907 7.591240 1.323711 0.932700 0.000000 -60.544900 6.961732 -4.161465 -4.059715 0.974430 -4.831315 -2.992913 -6.158680 -4.731395 2.799147 8.138503 -20.818281 -10.755371 -2.705494 -0.176464 -0.765795 0.000000 0.000000 0.000000 1.015616 14.653044 0.107277 -42.002397 -2.081609 5.927405 -0.584536 -79.735561 0.006287 -1.600748 2.084657 -0.024297 -0.047554 0.208380 -0.000000 0.000000 0.000000 0.000000 0.000000 0.000000 0.000000 14.101346 -17.920323 -0.048927 73.688259 -13.007722 -8.643866 3.790574 30.226253 0.012416 0.438254 4.931855 0.014496 0.122915 -0.060916 0.000000 0.000000 0.000000 0.000000 0.000000 0.000000 0.000000 
7.113397 16.380465 -7.635310 -176.050289 26.739980 -173.916856 -13.128260 5.006830 -0.276993 -7.774946 12.820565 1.209950 0.650837 3.078716 47.749372 1.948904 9.993142 16.372416 3.220100 -0.000001 -32.322200 8.401371 -0.875562 1.546194 6.090230 -4.224169 -35.283829 2.126681 -2.238491 33.633517 0.896392 7.886978 0.595769 0.893700 0.000000 -58.753900 7.191787 -4.045238 -3.881304 1.010748 -4.724871 -2.984429 -6.146442 -4.628090 2.721546 8.114969 -20.545000 -10.708534 -2.740868 -0.180060 -0.755645 0.000000 0.000000 0.000000 0.917694 14.538323 0.085758 -43.187474 -1.806932 6.543360 -0.625574 -79.215101 0.005996 -1.604532 2.180987 -0.025774 -0.050038 0.201912 -0.000000 0.000000 0.000000 0.000000 0.000000 0.000000 0.000000 14.118349 -17.577085 -0.025709 73.350326 -12.386922 -8.341490 3.778984 30.183924 0.012126 0.374319 4.847604 0.011495 0.122358 -0.061574 0.000000 0.000000 0.000000 0.000000 0.000000 0.000000 0.000000 
7.206782 16.381383 -7.791540 -176.080984 25.928427 -174.079255 -13.276918 4.914951 -0.393647 -7.525880 13.535304 -0.855622 0.791899 3.186525 51.000394 2.184100 12.008538 16.115926 3.934999 0.000000 -28.163100 8.421156 -0.932991 1.362037 6.128816 -5.243416 -34.858878 2.129043 -2.272930 34.526485 0.896421 8.102966 -0.285745 0.817900 0.000000 -57.069800 7.380839 -3.924275 -3.736266 1.037531 -4.611975 -2.981296 -6.138613 -4.518299 2.646199 8.110401 -20.253589 -10.658088 -2.777153 -0.183802 -0.744217 0.000000 0.000000 0.000000 0.800205 14.452490 0.064374 -44.411065 -1.497221 7.222099 -0.669449 -78.644415 0.005788 -1.637848 2.271244 -0.027553 -0.052153 0.194772 -0.000000 0.000000 0.000000 0.000000 0.000000 0.000000 0.000000 14.159603 -17.211616 -0.005535 72.966950 -11.719688 -7.949126 3.768301 30.145653 0.011863 0.332074 4.769573 0.009595 0.121693 -0.062209 0.000000 0.000000 0.000000 0.000000 0.000000 0.000000 0.000000 
7.297518 16.385259 -7.945293 -176.155044 25.116692 -174.210514 -13.390681 4.816868 -0.494010 -7.475993 14.161915 -3.017950 0.913965 3.298748 54.090465 2.389282 13.874409 15.434720 4.519700 -0.000001 -24.809401 8.444269 -0.988127 1.196363 6.130439 -6.271742 -34.424648 2.147044 -2.289893 35.229896 0.886232 8.228141 -1.256897 0.715799 -0.000000 -55.575400 7.510547 -3.802268 -3.623528 1.051521 -4.495050 -2.983009 -6.134053 -4.404630 2.573599 8.121437 -19.941371 -10.603393 -2.813709 -0.187629 -0.731299 0.000000 0.000000 0.000000 0.662412 14.395972 0.044761 -45.660355 -1.143233 7.946983 -0.716299 -78.021012 0.005684 -1.708766 2.352938 -0.030137 -0.053768 0.186970 -0.000000 0.000000 0.000000 0.000000 0.000000 0.000000 0.000000 14.220556 -16.822271 0.011638 72.547070 -11.010794 -7.492786 3.758118 30.112354 0.011630 0.308171 4.697203 0.008496 0.120974 -0.062882 0.000000 0.000000 0.000000 0.000000 0.000000 0.000000 0.000000 
7.385689 16.392056 -8.096367 -176.285058 24.307740 -174.322205 -13.465652 4.716659 -0.583952 -7.633876 14.723269 -5.254889 1.021279 3.414934 56.988244 2.558059 15.497322 14.363469 4.910900 0.000000 -22.149500 8.477831 -1.038024 1.052357 6.064422 -7.281177 -33.980686 2.171454 -2.293586 35.770592 0.865093 8.259322 -2.251783 0.600300 -0.000000 -54.336200 7.565970 -3.681729 -3.536330 1.050346 -4.375290 -2.987547 -6.130317 -4.288481 2.506227 8.144559 -19.613949 -10.546446 -2.848482 -0.191315 -0.717493 0.000000 0.000000 0.000000 0.507846 14.376703 0.027778 -46.932818 -0.751532 8.701128 -0.767041 -77.328957 0.005702 -1.822612 2.424045 -0.033425 -0.054810 0.178582 -0.000000 0.000000 0.000000 0.000000 0.000000 0.000000 0.000000 14.293323 -16.416531 0.025661 72.097319 -10.252407 -6.976152 3.747753 30.075078 0.011435 0.288238 4.636429 0.007597 0.120327 -0.063656 0.000000 0.000000 0.000000 0.000000 0.000000 0.000000 0.000000 
7.471406 16.401706 -8.244543 -176.479569 23.507511 -174.426448 -13.500451 4.616959 -0.670933 -7.995759 15.244375 -7.538325 1.115557 3.532916 59.662334 2.686393 16.810333 12.948136 5.070901 -0.000000 -19.981601 8.527047 -1.080287 0.931196 5.908041 -8.244138 -33.520843 2.193783 -2.287788 36.175601 0.833196 8.197630 -3.209417 0.483900 0.000000 -53.395000 7.539463 -3.564274 -3.464017 1.033082 -4.253277 -2.992764 -6.124592 -4.170682 2.444586 8.173831 -19.271248 -10.487119 -2.879833 -0.194697 -0.702866 0.000000 0.000000 0.000000 0.340367 14.395064 0.014585 -48.229776 -0.319549 9.460842 -0.822790 -76.553584 0.005822 -1.981961 2.483440 -0.037722 -0.055253 0.169680 -0.000000 0.000000 0.000000 0.000000 0.000000 0.000000 0.000000 14.366144 -15.995610 0.037146 71.628539 -9.443598 -6.417880 3.736652 30.030148 0.011276 0.264250 4.588100 0.006600 0.119827 -0.064588 0.000000 0.000000 0.000000 0.000000 0.000000 0.000000 0.000000 
